<?xml version="1.0" encoding="utf-8"?>
<!-- Generator: Adobe Illustrator 24.2.3, SVG Export Plug-In . SVG Version: 6.00 Build 0)  -->
<svg version="1.1" id="Capa_1" xmlns="http://www.w3.org/2000/svg" xmlns:xlink="http://www.w3.org/1999/xlink" x="0px" y="0px"
	 viewBox="0 0 434.9 116.3" style="enable-background:new 0 0 434.9 116.3;" xml:space="preserve">
<style type="text/css">
	.st0{fill:#27343A;}
</style>
<g>
	<path class="st0" d="M64.7,39.9c7.6,0,15.2,0.1,22.8,0c2.3,0,3,0.7,3,3c-0.1,13.3,0,26.6-0.1,39.9c-0.1,7.1-4.7,11.5-11.9,11.5
		c-9.4,0-18.7,0-28.1,0c-7.3,0-11.6-4.4-11.7-11.6c0-12.9,0.1-25.9-0.1-38.8c-0.1-3.4,1.1-4.2,4.3-4.1C50.2,40,57.5,39.9,64.7,39.9z
		"/>
	<path class="st0" d="M64.4,98.7c14.2,0,28.4,0,42.6,0c1.1,0,2.8-0.7,3.3,0.8c0.5,1.4-0.6,2.6-1.5,3.6c-1.6,1.8-3.8,2.3-6.1,2.3
		c-25.7,0-51.4,0-77,0c-2.5,0-4.7-0.8-6.2-2.8c-0.7-1-1.6-2.3-0.9-3.4c0.6-1,2.1-0.5,3.1-0.5C36,98.7,50.2,98.7,64.4,98.7z"/>
	<path class="st0" d="M105.5,64.5c0,2,0.1,4,0,6c-0.3,4.9-4.6,8.9-9.3,8.9c-1.5,0-2.8-0.1-2.7-2.1c0.1-1.4-0.4-3,2-3.2
		c3.6-0.2,4.8-2.5,4.8-5.8c-0.1-2.4-0.1-4.7,0-7.1c0.1-3.5-0.9-6.1-5-6.4c-2.4-0.1-1.7-2-1.8-3.4c-0.1-1.8,1.1-1.9,2.5-1.9
		c4.7-0.1,9.2,3.9,9.5,8.7C105.6,60.3,105.5,62.4,105.5,64.5z"/>
	<path class="st0" d="M53.1,33.9c0.4-4.2-0.1-8.2-1.3-12.1c-0.5-1.5,0.1-3,0.7-4.3c0.7-1.6,1.9-3.6,3.6-3.3c1.6,0.3,0.6,2.6,0.7,3.9
		c0.1,2.2,0.7,4.1,1.2,6.2C59.2,28.7,57.6,32,53.1,33.9z"/>
	<path class="st0" d="M66.3,13.8c-1,4,0.4,7.6,1.3,11.3c0.8,3.2-0.3,5.6-2.5,7.6c-0.4,0.4-1.1,0.8-1.6,0.7c-0.8-0.1-0.7-1-0.6-1.5
		c0.3-3-0.7-5.8-1.3-8.7C60.5,18.7,62.2,15.5,66.3,13.8z"/>
	<path class="st0" d="M71.9,34.3c1.3-3.6,0.2-6.6-0.5-9.6c-0.8-3.4-1.2-6.9,1.8-9.7c0.5-0.5,1-1.2,1.9-0.8c0.7,0.3,0.5,1.1,0.5,1.7
		c-0.2,2.8,0.6,5.4,1.3,8C78,28.9,76.7,31.8,71.9,34.3z"/>
	<path class="st0" d="M82.3,64.4c0,5.3,0,10.7,0,16c0,1,0.3,2.5-1.4,2.5c-1.5,0-1.5-1.4-1.6-2.5c0-10.7,0-21.3,0-32
		c0-1.1,0.1-2.5,1.6-2.5c1.7,0,1.4,1.5,1.4,2.5C82.3,53.7,82.3,59.1,82.3,64.4z"/>
	<g>
		<g>
			<path class="st0" d="M133.5,78.5c-1.7,0-3.1-0.4-4.1-1.3c-1-0.9-1.8-1.9-2.3-3.3c-0.5-1.3-0.7-2.7-0.7-4.2c0-1.9,0.3-3.8,0.9-5.7
				c0.6-1.9,1.4-3.8,2.4-5.5c1-1.7,2.1-3.3,3.4-4.6c1.3-1.4,2.6-2.4,4-3.2c1.4-0.8,2.8-1.2,4.2-1.2c1,0,1.8,0.2,2.4,0.7
				c0.6,0.5,0.9,1.3,0.9,2.4c0,0.7-0.1,1.5-0.4,2.4c-0.2,0.9-0.6,1.7-1,2.5c-0.4,0.8-0.9,1.5-1.4,2c-0.5,0.5-1,0.8-1.5,0.8
				c-0.2,0-0.4-0.1-0.6-0.2c-0.2-0.1-0.4-0.3-0.5-0.6c0.4-0.4,0.8-0.9,1.2-1.5c0.4-0.6,0.9-1.3,1.3-1.9c0.4-0.7,0.7-1.4,1-2
				c0.3-0.7,0.4-1.2,0.4-1.7c0-0.5-0.1-0.9-0.4-1.2c-0.3-0.3-0.7-0.5-1.4-0.5c-1,0-2.1,0.4-3.2,1.3c-1.1,0.8-2.2,2-3.2,3.4
				c-1,1.4-2,3-2.8,4.7c-0.8,1.7-1.5,3.5-2,5.3c-0.5,1.8-0.7,3.5-0.7,5.1c0,1.2,0.2,2.3,0.5,3.4c0.3,1.1,0.9,1.9,1.6,2.6
				c0.8,0.7,1.7,1,2.9,1c1.3,0,2.5-0.4,3.8-1.1c1.3-0.7,2.4-1.7,3.5-2.8c1.1-1.2,1.9-2.4,2.5-3.8l0.5,0.4c-0.8,1.6-1.8,3-2.9,4.3
				c-1.1,1.3-2.4,2.4-3.8,3.1C136.6,78.1,135.1,78.5,133.5,78.5z"/>
			<path class="st0" d="M146.6,77.1c-0.7,0-1.4-0.2-1.9-0.7c-0.5-0.5-0.8-1.2-0.8-2.3c0-0.9,0.2-1.8,0.6-2.8c0.4-1,0.9-2,1.6-3
				c0.7-1,1.4-1.9,2.3-2.7c0.9-0.8,1.8-1.4,2.7-1.9c0.9-0.5,1.9-0.7,2.8-0.7s1.7,0.2,2.3,0.7c0.6,0.5,0.9,1.1,0.9,2
				c0,0.6-0.2,1-0.5,1.2c-0.3,0.2-0.8,0.3-1.3,0.3c0-0.2,0.1-0.4,0.1-0.6c0-0.2,0.1-0.4,0.1-0.6c0-0.6-0.1-1-0.4-1.4
				c-0.3-0.4-0.7-0.6-1.4-0.6c-0.7,0-1.4,0.2-2.1,0.7c-0.7,0.5-1.4,1.1-2,1.9c-0.6,0.8-1.2,1.6-1.7,2.5c-0.5,0.9-0.9,1.8-1.2,2.7
				c-0.3,0.9-0.4,1.7-0.4,2.4c0,0.9,0.3,1.4,1,1.4c0.6,0,1.2-0.3,1.8-0.8c0.6-0.5,1.3-1.2,2-2c0.7-0.8,1.3-1.6,2-2.5
				s1.2-1.7,1.7-2.4c0.1-0.1,0.2-0.2,0.2-0.2c0.1,0,0.3,0.1,0.6,0.1s0.4,0.2,0.6,0.3c0.2,0.1,0.3,0.3,0.3,0.5c0,0.2-0.1,0.5-0.3,0.9
				c-0.2,0.4-0.5,0.8-0.7,1.3c-0.3,0.5-0.5,1-0.7,1.5c-0.2,0.5-0.3,1-0.3,1.4c0,0.4,0.1,0.7,0.3,1.1c0.2,0.3,0.5,0.5,0.9,0.5
				c0.6,0,1.5-0.5,2.6-1.4c1.1-0.9,2.1-2.4,3.2-4.3l0.4,0.4c-0.5,1.3-1.2,2.4-1.9,3.4s-1.6,1.8-2.5,2.3s-1.8,0.8-2.6,0.8
				c-0.9,0-1.5-0.3-2-0.8c-0.4-0.5-0.6-1.1-0.6-1.7c0-0.1,0-0.3,0-0.5c0-0.2,0-0.4,0.1-0.6c-1,1.4-2,2.4-2.8,3.1
				C148.3,76.8,147.5,77.1,146.6,77.1z"/>
			<path class="st0" d="M160.1,85.5c-0.2,0-0.5-0.1-0.8-0.2c-0.3-0.2-0.6-0.5-0.8-0.9c-0.2-0.5-0.3-1.1-0.3-2c0-1.1,0.2-2.4,0.5-4.1
				c0.4-1.7,0.9-3.6,1.5-5.6c0.6-2,1.3-4.1,2.2-6.3c0.8-2.1,1.7-4.2,2.6-6.2c0.9-2,1.9-3.8,2.9-5.4c1-1.6,2-2.9,2.9-3.8
				c1-0.9,1.9-1.4,2.7-1.4c0.5,0,0.8,0.2,1,0.5c0.2,0.3,0.2,0.7,0.2,1.1c0,1-0.3,2.2-0.8,3.4s-1.3,2.5-2.3,3.7
				c-0.9,1.2-2,2.4-3.1,3.5c-1.1,1.1-2.3,2.1-3.4,2.9c-0.1,0.3-0.2,0.6-0.3,0.9c-0.1,0.3-0.2,0.6-0.3,0.9c0.3,0,0.5,0.2,0.6,0.4
				c0.2,0.2,0.2,0.5,0.3,0.7c0.2,1.1,0.3,2,0.5,2.9c0.2,0.9,0.5,1.5,0.9,2c0.4,0.5,1,0.7,1.7,0.7c0.8,0,1.5-0.3,2.1-0.9
				c0.6-0.6,1.2-1.5,1.9-2.6l0.5,0.4c-0.6,1.4-1.4,2.5-2.3,3.1c-0.9,0.6-1.7,1-2.4,1c-0.4,0-0.9-0.1-1.4-0.3
				c-0.5-0.2-0.9-0.5-1.3-0.9c0,1.5-0.2,3-0.5,4.5c-0.3,1.5-0.8,2.8-1.3,4.1c-0.5,1.2-1.1,2.2-1.8,3
				C161.5,85.1,160.8,85.5,160.1,85.5z M161,83.8c0.3,0,0.6-0.2,0.9-0.7c0.3-0.5,0.7-1.1,1-1.9c0.3-0.8,0.6-1.6,0.9-2.6
				c0.3-0.9,0.5-1.9,0.6-2.8c0.2-0.9,0.3-1.8,0.3-2.5s-0.1-1.4-0.3-2c-0.2-0.6-0.5-1.3-0.9-2.2c-0.6,1.8-1.1,3.5-1.6,5.2
				c-0.5,1.7-0.9,3.2-1.1,4.5c-0.3,1.3-0.4,2.4-0.4,3.2C160.3,83.2,160.6,83.8,161,83.8z M165.7,63.1c1.6-1.4,2.9-2.9,4.1-4.3
				c1.1-1.5,2-2.7,2.6-3.9c0.6-1.1,0.9-1.9,0.9-2.4c0-0.3-0.2-0.5-0.5-0.5c-0.6,0-1.3,0.5-2.1,1.5c-0.8,1-1.6,2.4-2.5,4
				C167.4,59.2,166.5,61,165.7,63.1z"/>
			<path class="st0" d="M175.7,77c-1.5,0-2.6-0.4-3.3-1.2c-0.7-0.8-1.1-1.8-1.1-3c0-1.1,0.3-2.2,0.8-3.4c0.5-1.2,1.3-2.3,2.2-3.4
				c0.9-1.1,1.9-1.9,3-2.6c1.1-0.7,2.1-1,3.2-1c0.6,0,1.1,0.1,1.5,0.4c0.5,0.3,0.7,0.9,0.7,1.8c0,0.9-0.3,1.8-0.8,2.6
				c-0.5,0.8-1.2,1.5-2.1,2.1c-0.9,0.6-1.8,1.1-2.9,1.5c-1,0.4-2.1,0.6-3.1,0.7c0,0.2-0.1,0.5-0.1,0.7c0,0.2,0,0.4,0,0.6
				c0,0.4,0,0.7,0.1,1.1s0.2,0.7,0.5,1s0.5,0.5,0.9,0.7c0.4,0.2,0.8,0.3,1.4,0.3c1,0,2.1-0.3,3.1-0.9c1-0.6,1.9-1.4,2.8-2.3
				c0.9-1,1.6-2,2.2-3.2l0.4,0.3c-0.6,1.4-1.5,2.7-2.5,3.7c-1,1.1-2.1,1.9-3.2,2.5C178.1,76.7,176.9,77,175.7,77z M173.9,70.9
				c0.6-0.2,1.4-0.5,2.2-1s1.6-0.9,2.4-1.5c0.8-0.6,1.4-1.2,1.9-1.9c0.5-0.7,0.7-1.4,0.7-2.2c0-0.3,0-0.5-0.1-0.6
				c-0.1-0.1-0.3-0.2-0.6-0.2c-0.6,0-1.2,0.2-1.8,0.7c-0.6,0.4-1.3,1-1.9,1.7c-0.6,0.7-1.1,1.5-1.6,2.4
				C174.5,69.2,174.1,70.1,173.9,70.9z"/>
			<path class="st0" d="M186.8,77.1c-1,0-1.8-0.3-2.4-0.9c-0.6-0.6-0.8-1.5-0.8-2.7c0-1.1,0.2-2.4,0.6-3.9s0.9-3.1,1.5-4.8
				c-0.2,0-0.5-0.1-0.7-0.1c-0.2,0-0.4-0.1-0.6-0.2v-0.6c0.2,0,0.4,0,0.7,0.1c0.3,0,0.6,0,0.9,0.1c0.5-1.3,1-2.5,1.6-3.8
				c0.6-1.2,1.1-2.3,1.7-3.2c0.6-0.9,1.1-1.7,1.6-2.3c0.5-0.6,1-0.8,1.3-0.8c0.2,0,0.4,0.1,0.5,0.2c0.2,0.1,0.2,0.3,0.2,0.6
				c0,0.4-0.3,1.1-0.8,2s-1.1,2-1.9,3.3c-0.7,1.3-1.5,2.7-2.2,4.1c0.2,0,0.4,0,0.7,0s0.5,0,0.7,0c0.8,0,1.6,0,2.5,0
				c0.9,0,1.8-0.1,2.6-0.2v0.6c-1.3,0.1-2.5,0.3-3.5,0.3c-1,0.1-2,0.1-2.8,0.1c-0.1,0-0.2,0-0.3,0c-0.1,0-0.2,0-0.3,0
				c-0.6,1.3-1,2.6-1.4,3.9c-0.4,1.3-0.6,2.7-0.6,3.9c0,1,0.2,1.8,0.5,2.2c0.3,0.4,0.8,0.7,1.5,0.7c1.2,0,2.5-0.6,3.7-1.7
				c1.2-1.1,2.3-2.6,3.2-4.5l0.5,0.4c-0.6,1.3-1.3,2.6-2.2,3.6c-0.9,1.1-1.8,1.9-2.9,2.6C189.1,76.8,188,77.1,186.8,77.1z"/>
			<path class="st0" d="M197.9,77c-1.5,0-2.6-0.4-3.3-1.2c-0.7-0.8-1.1-1.8-1.1-3c0-1.1,0.3-2.2,0.8-3.4c0.5-1.2,1.3-2.3,2.2-3.4
				c0.9-1.1,1.9-1.9,3-2.6c1.1-0.7,2.1-1,3.2-1c0.6,0,1.1,0.1,1.5,0.4c0.5,0.3,0.7,0.9,0.7,1.8c0,0.9-0.3,1.8-0.8,2.6
				c-0.5,0.8-1.2,1.5-2.1,2.1c-0.9,0.6-1.8,1.1-2.9,1.5c-1,0.4-2.1,0.6-3.1,0.7c0,0.2-0.1,0.5-0.1,0.7c0,0.2,0,0.4,0,0.6
				c0,0.4,0,0.7,0.1,1.1s0.2,0.7,0.5,1s0.5,0.5,0.9,0.7c0.4,0.2,0.8,0.3,1.4,0.3c1,0,2.1-0.3,3.1-0.9c1-0.6,1.9-1.4,2.8-2.3
				c0.9-1,1.6-2,2.2-3.2l0.4,0.3c-0.6,1.4-1.5,2.7-2.5,3.7c-1,1.1-2.1,1.9-3.2,2.5C200.3,76.7,199.1,77,197.9,77z M196.2,70.9
				c0.6-0.2,1.4-0.5,2.2-1s1.6-0.9,2.4-1.5c0.8-0.6,1.4-1.2,1.9-1.9c0.5-0.7,0.7-1.4,0.7-2.2c0-0.3,0-0.5-0.1-0.6
				c-0.1-0.1-0.3-0.2-0.6-0.2c-0.6,0-1.2,0.2-1.8,0.7c-0.6,0.4-1.3,1-1.9,1.7c-0.6,0.7-1.1,1.5-1.6,2.4
				C196.8,69.2,196.4,70.1,196.2,70.9z"/>
			<path class="st0" d="M212.2,76.3c-0.8,0-1.5-0.2-1.9-0.6c-0.5-0.4-0.7-1-0.7-1.7c0-0.7,0.2-1.5,0.5-2.3c0.3-0.8,0.7-1.6,1-2.4
				c0.3-0.8,0.5-1.5,0.5-2.1c0-0.8-0.2-1.3-0.7-1.7c-0.4-0.4-0.9-0.7-1.4-1c-0.6,1.4-1.1,2.8-1.7,4c-0.6,1.3-1.1,2.2-1.5,2.9
				l-0.3-0.6c0.3-0.6,0.8-1.5,1.3-2.7c0.5-1.2,1.1-2.6,1.6-4.1c-0.2-0.2-0.4-0.5-0.4-0.9c0-0.7,0.2-1.3,0.6-1.8
				c0.4-0.5,0.7-0.7,0.9-0.7c0.3,0,0.4,0.1,0.5,0.3c0,0.2,0.1,0.4,0.1,0.5s-0.1,0.4-0.2,0.7c-0.1,0.3-0.2,0.6-0.2,0.6
				c0,0.3,0.2,0.6,0.6,0.9c0.4,0.3,0.8,0.6,1.3,0.9c0.5,0.3,0.9,0.8,1.3,1.3c0.4,0.5,0.6,1.1,0.6,1.9c0,0.7-0.1,1.5-0.4,2.2
				c-0.3,0.7-0.6,1.5-0.9,2.1c-0.3,0.7-0.5,1.3-0.5,1.8c0,0.4,0.1,0.7,0.3,0.9c0.2,0.1,0.5,0.2,0.8,0.2c0.6,0,1.2-0.2,1.8-0.5
				c0.6-0.4,1.2-0.8,1.8-1.4c0.6-0.6,1.1-1.1,1.5-1.7c0.5-0.6,0.8-1.2,1-1.7l0.5,0.4c-0.5,1-1.1,2-1.9,3c-0.8,1-1.7,1.8-2.6,2.4
				C214.3,76,213.3,76.3,212.2,76.3z"/>
			<path class="st0" d="M221.1,76.3c-0.9,0-1.6-0.3-2.1-0.9c-0.5-0.6-0.7-1.3-0.7-2.1c0-0.6,0.1-1.2,0.3-2.1s0.5-1.7,0.8-2.6
				c0.3-0.9,0.7-1.8,1.2-2.6c0.4-0.8,0.9-1.5,1.4-2c0.5-0.5,1-0.8,1.5-0.8c0.2,0,0.4,0.1,0.6,0.2c0.2,0.1,0.2,0.3,0.2,0.6
				c0,0.3-0.2,0.8-0.6,1.4c-0.4,0.6-0.8,1.4-1.3,2.2c-0.5,0.8-0.9,1.7-1.3,2.6s-0.6,1.8-0.6,2.6c0,0.9,0.1,1.4,0.4,1.7
				s0.7,0.4,1.3,0.4c0.8,0,1.7-0.4,2.6-1.2c0.9-0.8,1.9-2.2,2.9-4.3l0.3,0.4c-0.7,2.1-1.7,3.6-3,4.8
				C223.9,75.8,222.6,76.3,221.1,76.3z M225,60.6c-0.2-0.1-0.3-0.3-0.4-0.5c-0.1-0.2-0.1-0.4-0.1-0.5c0-0.2,0.1-0.6,0.4-1
				c0.3-0.5,0.6-1,1-1.5c0.4-0.5,0.8-1,1.2-1.3c0.4-0.4,0.8-0.5,1.2-0.5c0.2,0,0.4,0.1,0.5,0.2c0.2,0.2,0.2,0.5,0.3,0.9
				c-0.9,0.7-1.6,1.5-2.3,2.1C226.1,59.2,225.5,59.9,225,60.6z"/>
			<path class="st0" d="M229,77.1c-0.7,0-1.4-0.2-1.9-0.7c-0.5-0.5-0.8-1.2-0.8-2.3c0-0.9,0.2-1.8,0.6-2.8c0.4-1,0.9-2,1.6-3
				c0.7-1,1.4-1.9,2.3-2.7c0.9-0.8,1.8-1.4,2.7-1.9c0.9-0.5,1.9-0.7,2.8-0.7s1.7,0.2,2.3,0.7c0.6,0.5,0.9,1.1,0.9,2
				c0,0.6-0.2,1-0.5,1.2c-0.3,0.2-0.8,0.3-1.3,0.3c0-0.2,0.1-0.4,0.1-0.6c0-0.2,0.1-0.4,0.1-0.6c0-0.6-0.1-1-0.4-1.4
				c-0.3-0.4-0.7-0.6-1.4-0.6c-0.7,0-1.4,0.2-2.1,0.7c-0.7,0.5-1.4,1.1-2,1.9c-0.6,0.8-1.2,1.6-1.7,2.5c-0.5,0.9-0.9,1.8-1.2,2.7
				c-0.3,0.9-0.4,1.7-0.4,2.4c0,0.9,0.3,1.4,1,1.4c0.6,0,1.2-0.3,1.8-0.8c0.6-0.5,1.3-1.2,2-2c0.7-0.8,1.3-1.6,2-2.5
				s1.2-1.7,1.7-2.4c0.1-0.1,0.2-0.2,0.2-0.2c0.1,0,0.3,0.1,0.6,0.1s0.4,0.2,0.6,0.3c0.2,0.1,0.3,0.3,0.3,0.5c0,0.2-0.1,0.5-0.3,0.9
				c-0.2,0.4-0.5,0.8-0.7,1.3c-0.3,0.5-0.5,1-0.7,1.5c-0.2,0.5-0.3,1-0.3,1.4c0,0.4,0.1,0.7,0.3,1.1c0.2,0.3,0.5,0.5,0.9,0.5
				c0.6,0,1.5-0.5,2.6-1.4c1.1-0.9,2.1-2.4,3.2-4.3l0.4,0.4c-0.5,1.3-1.2,2.4-1.9,3.4s-1.6,1.8-2.5,2.3s-1.8,0.8-2.6,0.8
				c-0.9,0-1.5-0.3-2-0.8c-0.4-0.5-0.6-1.1-0.6-1.7c0-0.1,0-0.3,0-0.5c0-0.2,0-0.4,0.1-0.6c-1,1.4-2,2.4-2.8,3.1
				C230.7,76.8,229.8,77.1,229,77.1z"/>
			<path class="st0" d="M259.8,78.5c-1.2,0-2.4-0.4-3.4-1.1c-1-0.7-1.8-1.7-2.4-3.1c-0.6-1.3-0.9-2.9-0.9-4.8c0-1.8,0.3-3.7,0.9-5.6
				c0.6-1.9,1.4-3.7,2.4-5.4c1-1.7,2.1-3.3,3.4-4.6c1.3-1.4,2.6-2.4,4-3.2c1.4-0.8,2.8-1.2,4.2-1.2c0.9,0,1.6,0.2,2.2,0.6
				c0.6,0.4,0.9,0.9,1.2,1.5c0.2,0.6,0.4,1.3,0.4,2c0,0.8-0.1,1.7-0.4,2.5c-0.3,0.8-0.7,1.5-1.2,2c-0.5,0.5-1,0.8-1.6,0.8
				c-0.2,0-0.4-0.1-0.6-0.2s-0.4-0.3-0.5-0.6c0.3-0.2,0.7-0.7,1.2-1.3c0.4-0.6,0.8-1.3,1.2-2.1c0.3-0.8,0.5-1.5,0.5-2.1
				c0-0.6-0.2-1-0.5-1.4c-0.3-0.4-0.9-0.5-1.7-0.5c-1,0-2.1,0.4-3.2,1.3s-2.2,2-3.2,3.4c-1,1.4-2,3-2.8,4.7c-0.8,1.7-1.5,3.5-2,5.3
				c-0.5,1.8-0.7,3.5-0.7,5.1c0,2.2,0.5,3.9,1.4,5.1c0.9,1.2,2.1,1.9,3.5,1.9c0.9,0,1.8-0.3,2.7-1s1.6-1.6,2.2-2.7
				c0.6-1.1,1.2-2.3,1.6-3.5c0.4-1.3,0.6-2.5,0.7-3.7c-0.9-0.2-1.6-0.3-2.2-0.4c-0.6-0.1-1.1-0.1-1.5-0.1c-0.3,0-0.6,0-1,0
				c-0.3,0-0.8,0-1.2,0c0.2-0.7,0.5-1.2,0.9-1.5c0.4-0.3,0.9-0.4,1.6-0.4c0.7,0,1.4,0.1,2.1,0.3s1.4,0.5,2.1,0.7
				c0.7,0.3,1.3,0.5,1.8,0.6l-0.3,1.2c-0.5,1.2-0.8,2.3-1.1,3.1c-0.3,0.9-0.5,1.7-0.7,2.4c-0.2,0.7-0.3,1.3-0.3,1.8
				c-0.1,0.5-0.1,1-0.1,1.4c0,0.5,0,0.9,0.1,1.4c0,0.5,0.1,0.9,0.1,1.4c-0.4-0.2-0.7-0.4-1-0.6c-0.3-0.2-0.5-0.5-0.7-0.8
				s-0.2-0.7-0.2-1.2c0-0.3,0-0.5,0.1-0.8c0-0.3,0.1-0.6,0.2-0.9c-0.9,1.2-1.9,2.2-3,3C262.5,78.1,261.2,78.5,259.8,78.5z"/>
			<path class="st0" d="M274,77.1c-0.7,0-1.4-0.2-1.9-0.7c-0.5-0.5-0.8-1.2-0.8-2.3c0-0.9,0.2-1.8,0.6-2.8c0.4-1,0.9-2,1.6-3
				s1.4-1.9,2.3-2.7c0.9-0.8,1.8-1.4,2.7-1.9c0.9-0.5,1.9-0.7,2.8-0.7c0.9,0,1.7,0.2,2.3,0.7c0.6,0.5,0.9,1.1,0.9,2
				c0,0.6-0.2,1-0.5,1.2c-0.3,0.2-0.8,0.3-1.3,0.3c0-0.2,0.1-0.4,0.1-0.6c0-0.2,0.1-0.4,0.1-0.6c0-0.6-0.1-1-0.4-1.4
				c-0.3-0.4-0.7-0.6-1.4-0.6c-0.7,0-1.4,0.2-2.1,0.7c-0.7,0.5-1.4,1.1-2,1.9c-0.6,0.8-1.2,1.6-1.7,2.5c-0.5,0.9-0.9,1.8-1.2,2.7
				c-0.3,0.9-0.4,1.7-0.4,2.4c0,0.9,0.3,1.4,1,1.4c0.6,0,1.2-0.3,1.8-0.8c0.6-0.5,1.3-1.2,2-2c0.7-0.8,1.3-1.6,2-2.5
				c0.6-0.9,1.2-1.7,1.7-2.4c0.1-0.1,0.2-0.2,0.2-0.2c0.1,0,0.3,0.1,0.6,0.1c0.2,0.1,0.4,0.2,0.6,0.3s0.3,0.3,0.3,0.5
				c0,0.2-0.1,0.5-0.3,0.9c-0.2,0.4-0.5,0.8-0.7,1.3c-0.3,0.5-0.5,1-0.7,1.5c-0.2,0.5-0.3,1-0.3,1.4c0,0.4,0.1,0.7,0.3,1.1
				s0.5,0.5,0.9,0.5c0.6,0,1.5-0.5,2.6-1.4c1.1-0.9,2.1-2.4,3.2-4.3l0.4,0.4c-0.5,1.3-1.2,2.4-1.9,3.4s-1.6,1.8-2.5,2.3
				s-1.8,0.8-2.6,0.8c-0.9,0-1.5-0.3-2-0.8c-0.4-0.5-0.6-1.1-0.6-1.7c0-0.1,0-0.3,0-0.5c0-0.2,0-0.4,0.1-0.6c-1,1.4-2,2.4-2.8,3.1
				C275.7,76.8,274.8,77.1,274,77.1z"/>
			<path class="st0" d="M290.9,76.5c-1,0-1.8-0.4-2.2-1.1c-0.4-0.7-0.7-1.6-0.7-2.6c0-1.2,0.2-2.5,0.6-4.1c0.4-1.6,1-3.3,1.7-5
				c0.7-1.8,1.5-3.5,2.3-5.1c0.8-1.7,1.7-3.2,2.5-4.6s1.6-2.5,2.3-3.3c0.7-0.8,1.3-1.2,1.7-1.2c0.3,0,0.5,0.1,0.6,0.4
				c0.2,0.3,0.3,0.7,0.4,1.1c0.1,0.4,0.1,0.8,0.1,1.1c0,0.6-0.2,1.5-0.5,2.5c-0.3,1-0.8,2.2-1.4,3.5c-0.6,1.3-1.3,2.6-2.1,3.9
				c-0.8,1.3-1.7,2.6-2.6,3.8s-2,2.2-3,3.1c-0.1,0.6-0.3,1.3-0.3,1.9c-0.1,0.6-0.1,1.2-0.1,1.7c0,0.9,0.1,1.6,0.4,2.1
				s0.7,0.7,1.2,0.7c0.6,0,1.3-0.3,1.9-0.9s1.2-1.3,1.8-2.2c0.6-0.9,1-1.8,1.5-2.7l0.5,0.3c-1,2-2,3.7-3.1,4.8
				C293.4,75.9,292.2,76.5,290.9,76.5z M291.2,67.7c0.8-0.8,1.7-1.8,2.4-2.9c0.8-1.1,1.5-2.2,2.2-3.4c0.7-1.2,1.3-2.3,1.8-3.4
				c0.5-1.1,0.9-2.1,1.2-3c0.3-0.9,0.4-1.6,0.4-2c0-0.2,0-0.4-0.1-0.5c-0.1-0.1-0.1-0.1-0.2-0.1c-0.2,0-0.5,0.3-1,0.9
				c-0.5,0.6-1,1.4-1.6,2.5s-1.3,2.2-1.9,3.5c-0.6,1.3-1.3,2.7-1.9,4.1C292.1,64.9,291.6,66.3,291.2,67.7z"/>
			<path class="st0" d="M299,76.3c-0.9,0-1.6-0.3-2.1-0.9s-0.7-1.3-0.7-2.1c0-0.6,0.1-1.2,0.3-2.1c0.2-0.8,0.5-1.7,0.8-2.6
				s0.7-1.8,1.2-2.6c0.4-0.8,0.9-1.5,1.4-2c0.5-0.5,1-0.8,1.5-0.8c0.2,0,0.4,0.1,0.6,0.2s0.2,0.3,0.2,0.6c0,0.3-0.2,0.8-0.6,1.4
				c-0.4,0.6-0.8,1.4-1.3,2.2c-0.5,0.8-0.9,1.7-1.3,2.6c-0.4,0.9-0.6,1.8-0.6,2.6c0,0.9,0.1,1.4,0.4,1.7s0.7,0.4,1.3,0.4
				c0.8,0,1.7-0.4,2.6-1.2c0.9-0.8,1.9-2.2,2.9-4.3l0.3,0.4c-0.7,2.1-1.7,3.6-3,4.8C301.8,75.8,300.4,76.3,299,76.3z M303.3,59.9
				c-0.4,0-0.7-0.1-1-0.3s-0.5-0.5-0.5-0.9c0-0.5,0.3-0.9,0.9-1.3c0.6-0.4,1.2-0.6,1.7-0.6c0.4,0,0.6,0.1,0.9,0.3s0.3,0.5,0.3,0.9
				c0,0.5-0.2,0.9-0.7,1.3C304.4,59.6,303.9,59.9,303.3,59.9z"/>
			<path class="st0" d="M308.9,77.4c-1.2,0-2.1-0.4-2.9-1.2c-0.8-0.8-1.2-1.9-1.2-3.5c0-1.2,0.2-2.4,0.7-3.5
				c0.5-1.1,1.1-2.2,1.9-3.1c0.8-0.9,1.6-1.6,2.6-2.2c0.9-0.5,1.9-0.8,2.8-0.8c1,0,1.7,0.3,2,0.9c0.4,0.6,0.5,1.2,0.5,1.8
				c0,0.7-0.2,1.3-0.5,1.8c-0.3,0.5-0.8,0.8-1.3,0.8c-0.4,0-0.8-0.2-1-0.5c0.4-0.2,0.7-0.6,0.9-1.2c0.3-0.6,0.4-1.1,0.4-1.7
				c0-0.3-0.1-0.5-0.2-0.7s-0.3-0.2-0.6-0.2c-0.6,0-1.3,0.3-2,0.9c-0.7,0.6-1.3,1.3-1.9,2.2c-0.6,0.9-1.1,1.9-1.4,2.9
				c-0.4,1-0.6,2-0.6,2.8c0,0.7,0.2,1.4,0.5,2.1c0.4,0.6,1.1,0.9,2.1,0.9c1,0,1.9-0.3,2.9-0.8c1-0.5,1.9-1.3,2.7-2.3s1.5-2.1,2-3.5
				l0.5,0.4c-0.6,1.4-1.3,2.7-2.3,3.9c-1,1.1-2,2-3.2,2.7C311.3,77.1,310.1,77.4,308.9,77.4z"/>
			<path class="st0" d="M319.3,76.3c-0.9,0-1.6-0.3-2.1-0.9s-0.7-1.3-0.7-2.1c0-0.6,0.1-1.2,0.3-2.1c0.2-0.8,0.5-1.7,0.8-2.6
				s0.7-1.8,1.2-2.6c0.4-0.8,0.9-1.5,1.4-2c0.5-0.5,1-0.8,1.5-0.8c0.2,0,0.4,0.1,0.6,0.2s0.2,0.3,0.2,0.6c0,0.3-0.2,0.8-0.6,1.4
				c-0.4,0.6-0.8,1.4-1.3,2.2c-0.5,0.8-0.9,1.7-1.3,2.6c-0.4,0.9-0.6,1.8-0.6,2.6c0,0.9,0.1,1.4,0.4,1.7s0.7,0.4,1.3,0.4
				c0.8,0,1.7-0.4,2.6-1.2c0.9-0.8,1.9-2.2,2.9-4.3l0.3,0.4c-0.7,2.1-1.7,3.6-3,4.8C322.1,75.8,320.7,76.3,319.3,76.3z M323.6,59.9
				c-0.4,0-0.7-0.1-1-0.3s-0.5-0.5-0.5-0.9c0-0.5,0.3-0.9,0.9-1.3c0.6-0.4,1.2-0.6,1.7-0.6c0.4,0,0.6,0.1,0.9,0.3s0.3,0.5,0.3,0.9
				c0,0.5-0.2,0.9-0.7,1.3C324.7,59.6,324.2,59.9,323.6,59.9z"/>
			<path class="st0" d="M327.1,77.1c-0.7,0-1.4-0.2-1.9-0.7c-0.5-0.5-0.8-1.2-0.8-2.3c0-0.9,0.2-1.8,0.6-2.8c0.4-1,0.9-2,1.6-3
				s1.4-1.9,2.3-2.7c0.9-0.8,1.8-1.4,2.7-1.9c0.9-0.5,1.9-0.7,2.8-0.7c0.9,0,1.7,0.2,2.3,0.7c0.6,0.5,0.9,1.1,0.9,2
				c0,0.6-0.2,1-0.5,1.2c-0.3,0.2-0.8,0.3-1.3,0.3c0-0.2,0.1-0.4,0.1-0.6c0-0.2,0.1-0.4,0.1-0.6c0-0.6-0.1-1-0.4-1.4
				c-0.3-0.4-0.7-0.6-1.4-0.6c-0.7,0-1.4,0.2-2.1,0.7c-0.7,0.5-1.4,1.1-2,1.9c-0.6,0.8-1.2,1.6-1.7,2.5c-0.5,0.9-0.9,1.8-1.2,2.7
				c-0.3,0.9-0.4,1.7-0.4,2.4c0,0.9,0.3,1.4,1,1.4c0.6,0,1.2-0.3,1.8-0.8c0.6-0.5,1.3-1.2,2-2c0.7-0.8,1.3-1.6,2-2.5
				c0.6-0.9,1.2-1.7,1.7-2.4c0.1-0.1,0.2-0.2,0.2-0.2c0.1,0,0.3,0.1,0.6,0.1c0.2,0.1,0.4,0.2,0.6,0.3s0.3,0.3,0.3,0.5
				c0,0.2-0.1,0.5-0.3,0.9c-0.2,0.4-0.5,0.8-0.7,1.3c-0.3,0.5-0.5,1-0.7,1.5c-0.2,0.5-0.3,1-0.3,1.4c0,0.4,0.1,0.7,0.3,1.1
				s0.5,0.5,0.9,0.5c0.6,0,1.5-0.5,2.6-1.4c1.1-0.9,2.1-2.4,3.2-4.3l0.4,0.4c-0.5,1.3-1.2,2.4-1.9,3.4s-1.6,1.8-2.5,2.3
				s-1.8,0.8-2.6,0.8c-0.9,0-1.5-0.3-2-0.8c-0.4-0.5-0.6-1.1-0.6-1.7c0-0.1,0-0.3,0-0.5c0-0.2,0-0.4,0.1-0.6c-1,1.4-2,2.4-2.8,3.1
				C328.9,76.8,328,77.1,327.1,77.1z"/>
		</g>
	</g>
</g>
<g>
	<g>
		<path d="M353.6-67.4c-0.3,0-0.6-0.1-1-0.2c-0.3-0.1-0.7-0.3-1.1-0.4c-0.4-0.2-0.7-0.3-1.1-0.5c-0.2,0.2-0.4,0.4-0.6,0.5
			c-0.2,0.1-0.5,0.2-0.7,0.2c-0.3,0-0.5-0.1-0.7-0.2c-0.2-0.1-0.3-0.3-0.4-0.4c-0.1-0.2-0.1-0.3-0.1-0.4c0-0.1,0.1-0.3,0.2-0.4
			c0.1-0.1,0.4-0.2,0.7-0.2c0.2,0,0.4,0,0.7,0.1c0.3,0,0.5,0.1,0.8,0.2c0.2-0.3,0.4-0.7,0.5-1.2c0.2-0.4,0.3-0.9,0.5-1.4
			c0.2-0.5,0.3-1,0.5-1.5c-0.4-0.1-0.7-0.3-0.9-0.5c-0.2-0.2-0.3-0.5-0.3-0.8c0-0.1,0-0.3,0.1-0.4c0.1-0.1,0.1-0.3,0.3-0.4
			s0.2-0.2,0.4-0.2c-0.1,0.1-0.1,0.2-0.1,0.3c0,0.2,0,0.3,0,0.4c0,0.3,0.1,0.6,0.2,0.8s0.3,0.4,0.5,0.5c0.2-0.5,0.3-0.9,0.5-1.4
			c0.2-0.4,0.4-0.8,0.6-1.1s0.4-0.6,0.7-0.8s0.5-0.3,0.8-0.3c0.2,0,0.3,0,0.5,0.1c0.2,0.1,0.3,0.2,0.5,0.4c0.1,0.2,0.2,0.4,0.2,0.7
			c0,0.3-0.1,0.6-0.2,0.9c-0.1,0.3-0.3,0.6-0.5,0.9c-0.2,0.3-0.5,0.5-0.9,0.7c-0.4,0.2-0.8,0.3-1.3,0.3c0,0,0,0-0.1,0
			c0,0-0.1,0-0.2,0c-0.2,0.5-0.3,1-0.5,1.5s-0.4,1-0.6,1.4s-0.4,0.9-0.6,1.2c0.4,0.1,0.7,0.2,1.1,0.3c0.4,0.1,0.7,0.2,1.1,0.3
			c0.4,0.1,0.7,0.1,1,0.1c0.2,0,0.3,0,0.5,0c0.1,0,0.3-0.1,0.4-0.1c-0.1,0.4-0.3,0.6-0.5,0.8C354.2-67.5,353.9-67.4,353.6-67.4z
			 M349.1-68.2c0.2,0,0.3,0,0.5-0.1c0.2-0.1,0.3-0.2,0.4-0.4c-0.2-0.1-0.5-0.2-0.7-0.3s-0.5-0.1-0.6-0.1c-0.2,0-0.3,0-0.3,0.1
			c-0.1,0-0.1,0.1-0.1,0.2c0,0.1,0.1,0.3,0.2,0.4C348.7-68.2,348.9-68.2,349.1-68.2z M352.7-73.3c0.4,0,0.7-0.1,1-0.3
			s0.5-0.5,0.7-0.8s0.4-0.6,0.5-0.9c0.1-0.3,0.2-0.6,0.2-0.8c0-0.2,0-0.4-0.1-0.5s-0.2-0.1-0.3-0.1c-0.2,0-0.5,0.2-0.7,0.5
			c-0.2,0.3-0.4,0.7-0.6,1.3C353.1-74.5,352.9-73.9,352.7-73.3z"/>
		<path d="M356.5-68.1c-0.3,0-0.5-0.1-0.7-0.3c-0.2-0.2-0.3-0.4-0.3-0.8c0-0.3,0.1-0.5,0.2-0.9c0.1-0.3,0.3-0.6,0.5-0.9
			c0.2-0.3,0.4-0.6,0.7-0.9s0.5-0.5,0.8-0.6c0.3-0.2,0.6-0.2,0.9-0.2c0.2,0,0.3,0,0.3,0.1c0.1,0,0.1,0.1,0.2,0.2c0,0,0,0,0,0
			c0,0,0,0,0,0c0.2,0,0.3,0.1,0.3,0.2c0.1,0.1,0.1,0.2,0.1,0.3c0,0.1,0,0.2-0.1,0.4c-0.1,0.2-0.2,0.3-0.2,0.5
			c-0.1,0.2-0.1,0.4-0.1,0.6c0,0.2,0.1,0.4,0.2,0.5s0.3,0.2,0.5,0.2c0.2,0,0.3-0.1,0.5-0.2c0.2-0.2,0.4-0.4,0.5-0.6
			c0.2-0.2,0.3-0.5,0.5-0.8c0.1-0.3,0.2-0.6,0.3-0.8c-0.1-0.1-0.1-0.2-0.1-0.3c0-0.2,0-0.3,0.1-0.4c0.1-0.1,0.1-0.2,0.2-0.3
			c0.1-0.1,0.1-0.1,0.2-0.1c0.1,0,0.1,0,0.2,0.1s0,0.1,0,0.2s0,0.1-0.1,0.2c0,0.1-0.1,0.2-0.1,0.2c0,0.1,0.1,0.2,0.2,0.3
			c0.1,0.1,0.3,0.2,0.4,0.3c0.2,0.1,0.3,0.3,0.4,0.4c0.1,0.2,0.2,0.4,0.2,0.6c0,0.2-0.1,0.5-0.2,0.7s-0.2,0.5-0.3,0.7
			c-0.1,0.2-0.2,0.4-0.2,0.6c0,0.1,0,0.2,0.1,0.3c0.1,0,0.2,0.1,0.3,0.1c0.2,0,0.4-0.1,0.6-0.2c0.2-0.1,0.4-0.3,0.6-0.5
			c0.2-0.2,0.4-0.4,0.5-0.6c0.2-0.2,0.3-0.4,0.3-0.6l0.2,0.1c-0.2,0.3-0.4,0.7-0.6,1c-0.3,0.3-0.6,0.6-0.9,0.8
			c-0.3,0.2-0.7,0.3-1,0.3c-0.3,0-0.5-0.1-0.6-0.2s-0.2-0.3-0.2-0.6c0-0.2,0.1-0.5,0.2-0.8c0.1-0.3,0.2-0.5,0.3-0.8
			c0.1-0.3,0.2-0.5,0.2-0.7c0-0.3-0.1-0.4-0.2-0.6c-0.1-0.1-0.3-0.2-0.5-0.3c-0.1,0.3-0.2,0.6-0.4,0.9c-0.1,0.3-0.3,0.6-0.5,0.8
			c-0.2,0.3-0.4,0.5-0.6,0.6s-0.4,0.2-0.7,0.2c-0.2,0-0.4,0-0.6-0.1s-0.3-0.2-0.4-0.4c-0.2,0.6-0.6,1.1-0.9,1.4S357-68.1,356.5-68.1
			z M356.8-68.6c0.2,0,0.4-0.1,0.6-0.2s0.4-0.4,0.6-0.7c0.2-0.3,0.4-0.6,0.5-0.9c0-0.2-0.1-0.4-0.1-0.7c0-0.2,0-0.3,0-0.5
			c0-0.1,0-0.3,0.1-0.4s0.1-0.2,0.1-0.3c-0.3,0-0.5,0.1-0.8,0.2c-0.2,0.1-0.5,0.3-0.6,0.6c-0.2,0.2-0.4,0.5-0.5,0.8
			c-0.1,0.3-0.2,0.5-0.3,0.8c-0.1,0.3-0.1,0.5-0.1,0.7c0,0.2,0,0.3,0.1,0.4C356.5-68.6,356.7-68.6,356.8-68.6z"/>
		<path d="M366-67.9c-0.5,0-0.9-0.1-1.1-0.4s-0.4-0.6-0.4-1c0-0.4,0.1-0.7,0.3-1.1c0.2-0.4,0.4-0.8,0.7-1.1s0.6-0.6,1-0.9
			c0.4-0.2,0.7-0.3,1.1-0.3c0.2,0,0.4,0,0.5,0.1c0.2,0.1,0.2,0.3,0.2,0.6c0,0.3-0.1,0.6-0.3,0.9c-0.2,0.3-0.4,0.5-0.7,0.7
			c-0.3,0.2-0.6,0.4-1,0.5c-0.3,0.1-0.7,0.2-1,0.2c0,0.1,0,0.2,0,0.2c0,0.1,0,0.1,0,0.2c0,0.1,0,0.2,0,0.4c0,0.1,0.1,0.2,0.2,0.3
			c0.1,0.1,0.2,0.2,0.3,0.2c0.1,0.1,0.3,0.1,0.5,0.1c0.3,0,0.7-0.1,1-0.3c0.3-0.2,0.6-0.5,0.9-0.8c0.3-0.3,0.5-0.7,0.7-1.1l0.1,0.1
			c-0.2,0.5-0.5,0.9-0.8,1.2s-0.7,0.6-1.1,0.8C366.8-68,366.4-67.9,366-67.9z M365.5-69.9c0.2-0.1,0.5-0.2,0.7-0.3
			c0.3-0.1,0.5-0.3,0.8-0.5c0.3-0.2,0.5-0.4,0.6-0.6s0.2-0.5,0.2-0.7c0-0.1,0-0.2,0-0.2s-0.1-0.1-0.2-0.1c-0.2,0-0.4,0.1-0.6,0.2
			c-0.2,0.1-0.4,0.3-0.6,0.6c-0.2,0.2-0.4,0.5-0.5,0.8C365.7-70.5,365.5-70.2,365.5-69.9z"/>
		<path d="M374.8-68.1c-0.3,0-0.5-0.1-0.6-0.3c-0.1-0.2-0.2-0.4-0.2-0.6c0-0.2,0-0.4,0.1-0.6c0.1-0.2,0.1-0.4,0.2-0.6
			c0.1-0.2,0.1-0.4,0.1-0.5c0-0.2,0-0.3-0.1-0.3s-0.2-0.1-0.2-0.1c-0.2,0-0.4,0.2-0.7,0.5c-0.2,0.3-0.5,0.8-0.9,1.3
			c-0.1,0.2-0.2,0.4-0.3,0.6c-0.1,0.2-0.2,0.4-0.3,0.5c-0.1,0-0.1,0-0.2,0c-0.1,0-0.2,0-0.3-0.1c-0.1,0-0.1-0.1-0.1-0.1
			c0-0.1,0-0.2,0.1-0.4c0.1-0.2,0.2-0.5,0.3-0.7c0.1-0.3,0.2-0.6,0.3-0.9s0.1-0.5,0.1-0.8c0-0.1,0-0.2-0.1-0.3s-0.1-0.1-0.2-0.1
			c-0.2,0-0.4,0.1-0.6,0.3c-0.2,0.2-0.5,0.5-0.8,0.8c-0.3,0.3-0.5,0.7-0.8,1.1s-0.4,0.8-0.6,1.2c-0.1,0-0.2,0-0.3,0
			c-0.1,0-0.2-0.1-0.3-0.1s-0.1-0.1-0.1-0.1c0,0,0-0.2,0.1-0.4s0.2-0.5,0.3-0.9c0.1-0.3,0.2-0.7,0.3-1c0.1-0.3,0.1-0.6,0.1-0.9
			c0-0.1,0.1-0.1,0.2-0.2c0.1-0.1,0.2-0.1,0.3-0.1s0.2,0,0.2,0.1c0.1,0.1,0.1,0.1,0.1,0.2c0,0.1,0,0.3-0.1,0.5
			c-0.1,0.3-0.1,0.5-0.2,0.8c0.2-0.3,0.3-0.5,0.5-0.8c0.2-0.3,0.4-0.5,0.6-0.7c0.2-0.2,0.5-0.4,0.7-0.5c0.2-0.1,0.5-0.2,0.7-0.2
			c0.2,0,0.4,0.1,0.5,0.3c0.1,0.2,0.1,0.4,0.1,0.6c0,0.2,0,0.4-0.1,0.6s-0.1,0.4-0.2,0.6c-0.1,0.2-0.1,0.3-0.2,0.5
			c0.2-0.3,0.4-0.6,0.6-0.9c0.2-0.3,0.4-0.5,0.7-0.7s0.5-0.3,0.8-0.3c0.3,0,0.4,0.1,0.5,0.2c0.1,0.2,0.2,0.3,0.2,0.5s0,0.4-0.1,0.7
			c-0.1,0.2-0.1,0.5-0.2,0.7c-0.1,0.2-0.1,0.4-0.1,0.6c0,0.1,0,0.2,0.1,0.3s0.1,0.1,0.3,0.1c0.2,0,0.4-0.1,0.6-0.3s0.4-0.5,0.5-0.7
			c0.2-0.3,0.3-0.6,0.4-0.8l0.1,0.2c-0.1,0.3-0.3,0.7-0.5,1s-0.4,0.6-0.7,0.8C375.4-68.2,375.1-68.1,374.8-68.1z"/>
		<path d="M380.5-68.1c-0.3,0-0.5-0.1-0.7-0.3s-0.2-0.4-0.2-0.7c0-0.2,0-0.4,0.1-0.7c0.1-0.3,0.2-0.6,0.3-0.9
			c0.1-0.3,0.2-0.6,0.4-0.9c0.1-0.3,0.3-0.5,0.5-0.7c0.2-0.2,0.3-0.3,0.5-0.3c0.1,0,0.1,0,0.2,0.1c0.1,0,0.1,0.1,0.1,0.2
			c0,0.1-0.1,0.3-0.2,0.5s-0.3,0.5-0.4,0.7c-0.2,0.3-0.3,0.6-0.4,0.9s-0.2,0.6-0.2,0.9c0,0.3,0,0.5,0.1,0.6s0.2,0.1,0.4,0.1
			c0.3,0,0.6-0.1,0.9-0.4c0.3-0.3,0.6-0.7,1-1.4l0.1,0.1c-0.2,0.7-0.6,1.2-1,1.6C381.4-68.3,381-68.1,380.5-68.1z M381.9-73.6
			c-0.1,0-0.2,0-0.3-0.1s-0.2-0.2-0.2-0.3c0-0.2,0.1-0.3,0.3-0.4c0.2-0.1,0.4-0.2,0.6-0.2c0.1,0,0.2,0,0.3,0.1
			c0.1,0.1,0.1,0.2,0.1,0.3c0,0.2-0.1,0.3-0.2,0.4C382.3-73.7,382.1-73.6,381.9-73.6z"/>
		<path d="M381.8-65.1c-0.1,0-0.1,0-0.2-0.1c-0.1-0.1-0.1-0.1-0.1-0.2s0-0.1,0-0.1c0.1-0.4,0.2-0.7,0.3-1c0.1-0.3,0.2-0.6,0.3-0.9
			c0.1-0.3,0.2-0.7,0.3-1.1c0.1-0.4,0.2-1,0.3-1.6s0.2-1.5,0.3-2.4c0-0.1,0-0.1,0-0.2c0,0,0.1,0,0.2,0c0.2,0,0.4,0.1,0.4,0.2
			c0.1,0.1,0.1,0.2,0.1,0.4c0,0.1,0,0.3-0.1,0.6c0,0.3-0.1,0.6-0.2,1c0.1-0.3,0.3-0.5,0.5-0.8s0.4-0.5,0.7-0.7s0.6-0.3,0.9-0.3
			c0.4,0,0.6,0.1,0.9,0.4c0.2,0.3,0.3,0.6,0.3,1c0,0.3-0.1,0.6-0.2,1c-0.1,0.3-0.3,0.7-0.6,1c-0.3,0.3-0.6,0.6-0.9,0.8
			s-0.7,0.3-1.1,0.3c-0.2,0-0.4,0-0.5-0.1c-0.1,0-0.2-0.1-0.2-0.1c0,0,0-0.1,0.1-0.1c0.1,0,0.1,0,0.2,0c0.3,0,0.6-0.1,0.9-0.2
			c0.3-0.2,0.6-0.4,0.8-0.6s0.4-0.5,0.5-0.9s0.2-0.6,0.2-0.9c0-0.3-0.1-0.5-0.2-0.7c-0.1-0.2-0.3-0.3-0.5-0.3
			c-0.2,0-0.4,0.1-0.6,0.2c-0.2,0.1-0.4,0.3-0.6,0.5s-0.3,0.4-0.5,0.6c-0.1,0.2-0.2,0.4-0.3,0.6c-0.1,0.6-0.3,1.2-0.4,1.7
			c-0.1,0.6-0.3,1.1-0.4,1.5c-0.1,0.5-0.3,0.8-0.4,1.1c-0.1,0.3-0.2,0.5-0.3,0.5C381.9-65.1,381.8-65.1,381.8-65.1z"/>
		<path d="M388.5-67.8c-0.4,0-0.7-0.1-0.9-0.2c-0.2-0.2-0.4-0.4-0.5-0.6c-0.1-0.2-0.1-0.5-0.1-0.7c0-0.2,0-0.4,0.1-0.6
			c0.1-0.1,0.1-0.2,0.2-0.3s0.2-0.1,0.3-0.1c0.1,0,0.1-0.1,0.2-0.1c0.2-0.3,0.5-0.5,0.7-0.8c0.2-0.3,0.4-0.6,0.5-0.9v-0.1
			c0-0.3,0-0.5,0.2-0.6c0.1-0.1,0.2-0.2,0.3-0.2c0.1,0,0.1,0,0.1,0s0,0.1,0,0.1s0,0.1,0,0.2c0,0.1,0,0.2,0,0.3
			c0,0.3,0.1,0.6,0.2,0.9c0.1,0.3,0.2,0.6,0.3,1c0.1,0.3,0.2,0.7,0.2,1.1c0,0.1,0,0.2,0,0.3s0,0.2-0.1,0.3c0.3,0,0.5-0.2,0.8-0.4
			c0.2-0.2,0.5-0.5,0.7-1l0.1,0.1c-0.2,0.4-0.4,0.8-0.7,1s-0.6,0.4-1,0.4c-0.1,0.3-0.3,0.6-0.6,0.8
			C389.1-67.9,388.8-67.8,388.5-67.8z M388.5-68.3c0.1,0,0.2,0,0.4-0.1c0.2-0.1,0.3-0.2,0.4-0.5c-0.3-0.1-0.6-0.2-0.9-0.4
			c-0.3-0.2-0.5-0.4-0.6-0.6c-0.2,0-0.3,0.1-0.3,0.4c0,0.3,0.1,0.6,0.3,0.8C387.9-68.4,388.2-68.3,388.5-68.3z M389.3-69
			c0-0.1,0-0.2,0-0.3s0-0.2,0-0.3c0-0.4,0-0.8-0.1-1.1s-0.2-0.7-0.2-1.1c-0.2,0.3-0.4,0.6-0.6,0.9s-0.4,0.5-0.6,0.7
			c0.1,0.3,0.3,0.5,0.6,0.7S388.9-69.1,389.3-69z"/>
		<path d="M392.2-68.1c-0.3,0-0.5-0.1-0.7-0.4c-0.2-0.2-0.2-0.5-0.2-0.8c0-0.2,0-0.5,0.1-0.8c0.1-0.3,0.2-0.6,0.3-0.9
			c0.1-0.3,0.2-0.5,0.3-0.7s0.2-0.3,0.3-0.3c0,0,0.1,0,0.2,0.1c0.1,0,0.2,0.1,0.2,0.2c-0.1,0.1-0.2,0.3-0.3,0.6
			c-0.1,0.3-0.2,0.6-0.3,0.9c-0.1,0.3-0.1,0.6-0.1,0.9c0,0.1,0,0.2,0,0.3c0,0.1,0.1,0.3,0.1,0.4s0.2,0.2,0.3,0.2
			c0.2,0,0.3-0.1,0.5-0.2s0.3-0.4,0.5-0.6s0.3-0.5,0.5-0.8c0.2-0.3,0.3-0.6,0.4-0.8c0.1-0.3,0.2-0.5,0.3-0.7c0,0,0.1,0,0.2,0
			c0.1,0,0.2,0.1,0.3,0.1c0.1,0,0.1,0.1,0.1,0.2c0,0,0,0.1-0.1,0.3c-0.1,0.2-0.2,0.4-0.3,0.7c-0.1,0.3-0.2,0.5-0.3,0.8
			c-0.1,0.3-0.1,0.5-0.1,0.7c0,0.1,0,0.3,0.1,0.3c0.1,0.1,0.2,0.1,0.3,0.1c0.2,0,0.4-0.1,0.6-0.2s0.5-0.4,0.7-0.7s0.5-0.6,0.7-1
			l0.2,0.1c-0.2,0.4-0.4,0.8-0.7,1.1c-0.3,0.3-0.6,0.6-0.9,0.8c-0.3,0.2-0.6,0.3-0.9,0.3c-0.2,0-0.4,0-0.5-0.1
			c-0.1-0.1-0.2-0.2-0.3-0.3s-0.1-0.3-0.1-0.4c0-0.1,0-0.2,0-0.3c0-0.1,0-0.2,0.1-0.3c-0.1,0.3-0.3,0.5-0.5,0.7s-0.3,0.4-0.5,0.5
			C392.6-68.2,392.4-68.1,392.2-68.1z"/>
		<path d="M402.6-68.1c-0.3,0-0.5-0.1-0.6-0.3c-0.1-0.2-0.2-0.4-0.2-0.6c0-0.2,0-0.4,0.1-0.6c0.1-0.2,0.1-0.4,0.2-0.6
			c0.1-0.2,0.1-0.4,0.1-0.5c0-0.2,0-0.3-0.1-0.3s-0.2-0.1-0.2-0.1c-0.2,0-0.4,0.2-0.7,0.5c-0.2,0.3-0.5,0.8-0.9,1.3
			c-0.1,0.2-0.2,0.4-0.3,0.6c-0.1,0.2-0.2,0.4-0.3,0.5c-0.1,0-0.1,0-0.2,0c-0.1,0-0.2,0-0.3-0.1c-0.1,0-0.1-0.1-0.1-0.1
			c0-0.1,0-0.2,0.1-0.4c0.1-0.2,0.2-0.5,0.3-0.7c0.1-0.3,0.2-0.6,0.3-0.9s0.1-0.5,0.1-0.8c0-0.1,0-0.2-0.1-0.3s-0.1-0.1-0.2-0.1
			c-0.2,0-0.4,0.1-0.6,0.3c-0.2,0.2-0.5,0.5-0.8,0.8c-0.3,0.3-0.5,0.7-0.8,1.1s-0.4,0.8-0.6,1.2c-0.1,0-0.2,0-0.3,0
			c-0.1,0-0.2-0.1-0.3-0.1s-0.1-0.1-0.1-0.1c0,0,0-0.2,0.1-0.4s0.2-0.5,0.3-0.9c0.1-0.3,0.2-0.7,0.3-1c0.1-0.3,0.1-0.6,0.1-0.9
			c0-0.1,0.1-0.1,0.2-0.2c0.1-0.1,0.2-0.1,0.3-0.1s0.2,0,0.2,0.1c0.1,0.1,0.1,0.1,0.1,0.2c0,0.1,0,0.3-0.1,0.5
			c-0.1,0.3-0.1,0.5-0.2,0.8c0.2-0.3,0.3-0.5,0.5-0.8c0.2-0.3,0.4-0.5,0.6-0.7c0.2-0.2,0.5-0.4,0.7-0.5c0.2-0.1,0.5-0.2,0.7-0.2
			c0.2,0,0.4,0.1,0.5,0.3c0.1,0.2,0.1,0.4,0.1,0.6c0,0.2,0,0.4-0.1,0.6s-0.1,0.4-0.2,0.6c-0.1,0.2-0.1,0.3-0.2,0.5
			c0.2-0.3,0.4-0.6,0.6-0.9c0.2-0.3,0.4-0.5,0.7-0.7s0.5-0.3,0.8-0.3c0.3,0,0.4,0.1,0.5,0.2c0.1,0.2,0.2,0.3,0.2,0.5s0,0.4-0.1,0.7
			c-0.1,0.2-0.1,0.5-0.2,0.7c-0.1,0.2-0.1,0.4-0.1,0.6c0,0.1,0,0.2,0.1,0.3s0.1,0.1,0.3,0.1c0.2,0,0.4-0.1,0.6-0.3s0.4-0.5,0.5-0.7
			c0.2-0.3,0.3-0.6,0.4-0.8l0.1,0.2c-0.1,0.3-0.3,0.7-0.5,1s-0.4,0.6-0.7,0.8C403.3-68.2,403-68.1,402.6-68.1z"/>
	</g>
</g>
</svg>
